{
  "asset": {
    "generator": "Khronos glTF Blender I/O v3.6.28",
    "version": "2.0"
  },
  "scene": 0,
  "scenes": [
    {
      "name": "Scene",
      "nodes": [
        0
      ]
    }
  ],
  "nodes": [
    {
      "mesh": 0,
      "name": "A0509_2_1.bbox"
    }
  ],
  "meshes": [
    {
      "name": "A0509_2_1.bbox",
      "primitives": [
        {
          "attributes": {
            "POSITION": 0,
            "NORMAL": 1
          },
          "indices": 2,
          "material": 0
        }
      ]
    }
  ],
  "accessors": [
    {
      "bufferView": 0,
      "componentType": 5126,
      "count": 24,
      "max": [
        345,
        200.25999450683594,
        58.76029968261719
      ],
      "min": [
        64,
        82.73979949951172,
        -58.76029968261719
      ],
      "type": "VEC3"
    },
    {
      "bufferView": 1,
      "componentType": 5126,
      "count": 24,
      "type": "VEC3"
    },
    {
      "bufferView": 2,
      "componentType": 5123,
      "count": 132,
      "type": "SCALAR"
    }
  ],
  "bufferViews": [
    {
      "buffer": 0,
      "byteLength": 288,
      "byteOffset": 0,
      "target": 34962
    },
    {
      "buffer": 0,
      "byteLength": 288,
      "byteOffset": 288,
      "target": 34962
    },
    {
      "buffer": 0,
      "byteLength": 264,
      "byteOffset": 576,
      "target": 34963
    }
  ],
  "buffers": [
    {
      "byteLength": 840,
      "uri": "A0509_2_1.bbox.bin"
    }
  ],
  "materials": [
    {
      "name": "DefaultMaterial",
      "pbrMetallicRoughness": {
        "baseColorFactor": [
          1,
          1,
          0,
          0.2
        ]
      },
      "alphaMode": "BLEND"
    }
  ]
}