{
	"asset":{
		"generator":"Khronos glTF Blender I/O v3.6.28",
		"version":"2.0"
	},
	"scene":0,
	"scenes":[
		{
			"name":"Scene",
			"nodes":[
				0
			]
		}
	],
	"nodes":[
		{
			"mesh":0,
			"name":"A0509_5_0"
		}
	],
	"materials":[
		{
			"doubleSided":true,
			"name":"Material_012",
			"pbrMetallicRoughness":{
				"baseColorFactor":[
					0.6499999761581421,
					0.6499999761581421,
					0.6499999761581421,
					1
				],
				"metallicFactor":0,
				"roughnessFactor":0.5
			}
		}
	],
	"meshes":[
		{
			"name":"A0509 5 0.001",
			"primitives":[
				{
					"attributes":{
						"POSITION":0,
						"NORMAL":1
					},
					"indices":2,
					"material":0
				}
			]
		}
	],
	"accessors":[
		{
			"bufferView":0,
			"componentType":5126,
			"count":3438,
			"max":[
				45.113800048828125,
				64,
				45.11296844482422
			],
			"min":[
				-45.113800048828125,
				51,
				-45.114009857177734
			],
			"type":"VEC3"
		},
		{
			"bufferView":1,
			"componentType":5126,
			"count":3438,
			"type":"VEC3"
		},
		{
			"bufferView":2,
			"componentType":5123,
			"count":3696,
			"type":"SCALAR"
		}
	],
	"bufferViews":[
		{
			"buffer":0,
			"byteLength":41256,
			"byteOffset":0,
			"target":34962
		},
		{
			"buffer":0,
			"byteLength":41256,
			"byteOffset":41256,
			"target":34962
		},
		{
			"buffer":0,
			"byteLength":7392,
			"byteOffset":82512,
			"target":34963
		}
	],
	"buffers":[
		{
			"byteLength":89904,
			"uri":"A0509_5_0.bin"
		}
	]
}
