{
	"asset":{
		"generator":"Khronos glTF Blender I/O v3.6.28",
		"version":"2.0"
	},
	"scene":0,
	"scenes":[
		{
			"name":"Scene",
			"nodes":[
				0
			]
		}
	],
	"nodes":[
		{
			"mesh":0,
			"name":"A0509_3_1"
		}
	],
	"materials":[
		{
			"doubleSided":true,
			"name":"Material_009",
			"pbrMetallicRoughness":{
				"metallicFactor":0,
				"roughnessFactor":0.5
			}
		}
	],
	"meshes":[
		{
			"name":"A0509 3 1.001",
			"primitives":[
				{
					"attributes":{
						"POSITION":0,
						"NORMAL":1
					},
					"indices":2,
					"material":0
				}
			]
		}
	],
	"accessors":[
		{
			"bufferView":0,
			"componentType":5126,
			"count":19508,
			"max":[
				57.77700424194336,
				64.00090026855469,
				58.161006927490234
			],
			"min":[
				-57.77700424194336,
				-49.903499603271484,
				-98.37799072265625
			],
			"type":"VEC3"
		},
		{
			"bufferView":1,
			"componentType":5126,
			"count":19508,
			"type":"VEC3"
		},
		{
			"bufferView":2,
			"componentType":5123,
			"count":20058,
			"type":"SCALAR"
		}
	],
	"bufferViews":[
		{
			"buffer":0,
			"byteLength":234096,
			"byteOffset":0,
			"target":34962
		},
		{
			"buffer":0,
			"byteLength":234096,
			"byteOffset":234096,
			"target":34962
		},
		{
			"buffer":0,
			"byteLength":40116,
			"byteOffset":468192,
			"target":34963
		}
	],
	"buffers":[
		{
			"byteLength":508308,
			"uri":"A0509_3_1.bin"
		}
	]
}
