{
	"asset":{
		"generator":"Khronos glTF Blender I/O v3.6.28",
		"version":"2.0"
	},
	"scene":0,
	"scenes":[
		{
			"name":"Scene",
			"nodes":[
				0,
				1
			]
		}
	],
	"nodes":[
		{
			"mesh":0,
			"name":"A0509_2_1"
		},
		{
			"mesh":1,
			"name":"Doosan_Mark",
			"rotation":[
				-0.5,
				-0.5,
				-0.5,
				0.4999999701976776
			],
			"translation":[
				214.81678771972656,
				141.3928985595703,
				40.83002853393555
			]
		}
	],
	"materials":[
		{
			"doubleSided":true,
			"name":"Material_003",
			"pbrMetallicRoughness":{
				"metallicFactor":0,
				"roughnessFactor":0.5
			}
		},
		{
			"doubleSided":true,
			"name":"Material_002",
			"pbrMetallicRoughness":{
				"baseColorFactor":[
					0.800000011920929,
					0.800000011920929,
					0.800000011920929,
					1
				],
				"metallicFactor":0,
				"roughnessFactor":0.5
			}
		}
	],
	"meshes":[
		{
			"name":"A0509 2 1.002",
			"primitives":[
				{
					"attributes":{
						"POSITION":0,
						"NORMAL":1
					},
					"indices":2,
					"material":0
				}
			]
		},
		{
			"name":"Doosan Mark.003",
			"primitives":[
				{
					"attributes":{
						"POSITION":3,
						"NORMAL":4
					},
					"indices":5,
					"material":1
				}
			]
		}
	],
	"accessors":[
		{
			"bufferView":0,
			"componentType":5126,
			"count":13335,
			"max":[
				345,
				200.25999450683594,
				58.76029968261719
			],
			"min":[
				64,
				82.73979949951172,
				-58.76029968261719
			],
			"type":"VEC3"
		},
		{
			"bufferView":1,
			"componentType":5126,
			"count":13335,
			"type":"VEC3"
		},
		{
			"bufferView":2,
			"componentType":5123,
			"count":14118,
			"type":"SCALAR"
		},
		{
			"bufferView":3,
			"componentType":5126,
			"count":31055,
			"max":[
				2.223376989364624,
				57.424827575683594,
				7.8472981452941895
			],
			"min":[
				-2.3790740966796875,
				-57.38405990600586,
				-7.508794784545898
			],
			"type":"VEC3"
		},
		{
			"bufferView":4,
			"componentType":5126,
			"count":31055,
			"type":"VEC3"
		},
		{
			"bufferView":5,
			"componentType":5123,
			"count":39420,
			"type":"SCALAR"
		}
	],
	"bufferViews":[
		{
			"buffer":0,
			"byteLength":160020,
			"byteOffset":0,
			"target":34962
		},
		{
			"buffer":0,
			"byteLength":160020,
			"byteOffset":160020,
			"target":34962
		},
		{
			"buffer":0,
			"byteLength":28236,
			"byteOffset":320040,
			"target":34963
		},
		{
			"buffer":0,
			"byteLength":372660,
			"byteOffset":348276,
			"target":34962
		},
		{
			"buffer":0,
			"byteLength":372660,
			"byteOffset":720936,
			"target":34962
		},
		{
			"buffer":0,
			"byteLength":78840,
			"byteOffset":1093596,
			"target":34963
		}
	],
	"buffers":[
		{
			"byteLength":1172436,
			"uri":"A0509_2_1.bin"
		}
	]
}
