{
	"asset":{
		"generator":"Khronos glTF Blender I/O v3.6.28",
		"version":"2.0"
	},
	"scene":0,
	"scenes":[
		{
			"name":"Scene",
			"nodes":[
				0
			]
		}
	],
	"nodes":[
		{
			"mesh":0,
			"name":"A0509_0_0"
		}
	],
	"materials":[
		{
			"doubleSided":true,
			"name":"Material_001",
			"pbrMetallicRoughness":{
				"baseColorFactor":[
					0.4000000059604645,
					0.4000000059604645,
					0.4000000059604645,
					1
				],
				"metallicFactor":0,
				"roughnessFactor":0.5
			}
		}
	],
	"meshes":[
		{
			"name":"A0509 0 0.001",
			"primitives":[
				{
					"attributes":{
						"POSITION":0,
						"NORMAL":1
					},
					"indices":2,
					"material":0
				}
			]
		}
	],
	"accessors":[
		{
			"bufferView":0,
			"componentType":5126,
			"count":20990,
			"max":[
				90.99971008300781,
				94.5,
				90.99971008300781
			],
			"min":[
				-90.99971008300781,
				0,
				-90.99971008300781
			],
			"type":"VEC3"
		},
		{
			"bufferView":1,
			"componentType":5126,
			"count":20990,
			"type":"VEC3"
		},
		{
			"bufferView":2,
			"componentType":5123,
			"count":23256,
			"type":"SCALAR"
		}
	],
	"bufferViews":[
		{
			"buffer":0,
			"byteLength":251880,
			"byteOffset":0,
			"target":34962
		},
		{
			"buffer":0,
			"byteLength":251880,
			"byteOffset":251880,
			"target":34962
		},
		{
			"buffer":0,
			"byteLength":46512,
			"byteOffset":503760,
			"target":34963
		}
	],
	"buffers":[
		{
			"byteLength":550272,
			"uri":"A0509_0_0.bin"
		}
	]
}
