{
	"asset":{
		"generator":"Khronos glTF Blender I/O v3.6.28",
		"version":"2.0"
	},
	"scene":0,
	"scenes":[
		{
			"name":"Scene",
			"nodes":[
				0
			]
		}
	],
	"nodes":[
		{
			"mesh":0,
			"name":"A0509_4_0"
		}
	],
	"materials":[
		{
			"doubleSided":true,
			"name":"Material_010",
			"pbrMetallicRoughness":{
				"metallicFactor":0,
				"roughnessFactor":0.5
			}
		}
	],
	"meshes":[
		{
			"name":"A0509 4 0.001",
			"primitives":[
				{
					"attributes":{
						"POSITION":0,
						"NORMAL":1
					},
					"indices":2,
					"material":0
				}
			]
		}
	],
	"accessors":[
		{
			"bufferView":0,
			"componentType":5126,
			"count":16848,
			"max":[
				45.19449996948242,
				-51,
				45.192100524902344
			],
			"min":[
				-45.19449996948242,
				-308.8390197753906,
				-167.1940155029297
			],
			"type":"VEC3"
		},
		{
			"bufferView":1,
			"componentType":5126,
			"count":16848,
			"type":"VEC3"
		},
		{
			"bufferView":2,
			"componentType":5123,
			"count":17526,
			"type":"SCALAR"
		}
	],
	"bufferViews":[
		{
			"buffer":0,
			"byteLength":202176,
			"byteOffset":0,
			"target":34962
		},
		{
			"buffer":0,
			"byteLength":202176,
			"byteOffset":202176,
			"target":34962
		},
		{
			"buffer":0,
			"byteLength":35052,
			"byteOffset":404352,
			"target":34963
		}
	],
	"buffers":[
		{
			"byteLength":439404,
			"uri":"A0509_4_0.bin"
		}
	]
}
