{
	"asset":{
		"generator":"Khronos glTF Blender I/O v3.6.28",
		"version":"2.0"
	},
	"scene":0,
	"scenes":[
		{
			"name":"Scene",
			"nodes":[
				0
			]
		}
	],
	"nodes":[
		{
			"mesh":0,
			"name":"A0509_1_1"
		}
	],
	"materials":[
		{
			"doubleSided":true,
			"name":"Material_003",
			"pbrMetallicRoughness":{
				"metallicFactor":0,
				"roughnessFactor":0.5
			}
		}
	],
	"meshes":[
		{
			"name":"A0509 1 1.002",
			"primitives":[
				{
					"attributes":{
						"POSITION":0,
						"NORMAL":1
					},
					"indices":2,
					"material":0
				}
			]
		}
	],
	"accessors":[
		{
			"bufferView":0,
			"componentType":5126,
			"count":26399,
			"max":[
				61.07169723510742,
				109.38600158691406,
				60.73659896850586
			],
			"min":[
				-61.07169723510742,
				-61,
				-64.00910186767578
			],
			"type":"VEC3"
		},
		{
			"bufferView":1,
			"componentType":5126,
			"count":26399,
			"type":"VEC3"
		},
		{
			"bufferView":2,
			"componentType":5123,
			"count":27033,
			"type":"SCALAR"
		}
	],
	"bufferViews":[
		{
			"buffer":0,
			"byteLength":316788,
			"byteOffset":0,
			"target":34962
		},
		{
			"buffer":0,
			"byteLength":316788,
			"byteOffset":316788,
			"target":34962
		},
		{
			"buffer":0,
			"byteLength":54066,
			"byteOffset":633576,
			"target":34963
		}
	],
	"buffers":[
		{
			"byteLength":687644,
			"uri":"A0509_1_1.bin"
		}
	]
}
