{
	"asset":{
		"generator":"Khronos glTF Blender I/O v3.6.28",
		"version":"2.0"
	},
	"scene":0,
	"scenes":[
		{
			"name":"Scene",
			"nodes":[
				0
			]
		}
	],
	"nodes":[
		{
			"mesh":0,
			"name":"A0509_1_2"
		}
	],
	"materials":[
		{
			"doubleSided":true,
			"name":"Material_004",
			"pbrMetallicRoughness":{
				"baseColorFactor":[
					0.6499999761581421,
					0.6499999761581421,
					0.6499999761581421,
					1
				],
				"metallicFactor":0,
				"roughnessFactor":0.5
			}
		}
	],
	"meshes":[
		{
			"name":"A0509 1 2.002",
			"primitives":[
				{
					"attributes":{
						"POSITION":0,
						"NORMAL":1
					},
					"indices":2,
					"material":0
				}
			]
		}
	],
	"accessors":[
		{
			"bufferView":0,
			"componentType":5126,
			"count":7995,
			"max":[
				49.498199462890625,
				107.45100402832031,
				54.10479736328125
			],
			"min":[
				-49.498199462890625,
				70.39701080322266,
				-36.836700439453125
			],
			"type":"VEC3"
		},
		{
			"bufferView":1,
			"componentType":5126,
			"count":7995,
			"type":"VEC3"
		},
		{
			"bufferView":2,
			"componentType":5123,
			"count":8058,
			"type":"SCALAR"
		}
	],
	"bufferViews":[
		{
			"buffer":0,
			"byteLength":95940,
			"byteOffset":0,
			"target":34962
		},
		{
			"buffer":0,
			"byteLength":95940,
			"byteOffset":95940,
			"target":34962
		},
		{
			"buffer":0,
			"byteLength":16116,
			"byteOffset":191880,
			"target":34963
		}
	],
	"buffers":[
		{
			"byteLength":207996,
			"uri":"A0509_1_2.bin"
		}
	]
}
