{
	"asset":{
		"generator":"Khronos glTF Blender I/O v3.6.28",
		"version":"2.0"
	},
	"scene":0,
	"scenes":[
		{
			"name":"Scene",
			"nodes":[
				0
			]
		}
	],
	"nodes":[
		{
			"mesh":0,
			"name":"A0509_4_1"
		}
	],
	"materials":[
		{
			"doubleSided":true,
			"name":"Material_011",
			"pbrMetallicRoughness":{
				"metallicFactor":0,
				"roughnessFactor":0.5
			}
		}
	],
	"meshes":[
		{
			"name":"A0509 4 1.001",
			"primitives":[
				{
					"attributes":{
						"POSITION":0,
						"NORMAL":1
					},
					"indices":2,
					"material":0
				}
			]
		}
	],
	"accessors":[
		{
			"bufferView":0,
			"componentType":5126,
			"count":18545,
			"max":[
				50.35369873046875,
				50.205989837646484,
				-64
			],
			"min":[
				-50.35369873046875,
				-51,
				-219.0390167236328
			],
			"type":"VEC3"
		},
		{
			"bufferView":1,
			"componentType":5126,
			"count":18545,
			"type":"VEC3"
		},
		{
			"bufferView":2,
			"componentType":5123,
			"count":19020,
			"type":"SCALAR"
		}
	],
	"bufferViews":[
		{
			"buffer":0,
			"byteLength":222540,
			"byteOffset":0,
			"target":34962
		},
		{
			"buffer":0,
			"byteLength":222540,
			"byteOffset":222540,
			"target":34962
		},
		{
			"buffer":0,
			"byteLength":38040,
			"byteOffset":445080,
			"target":34963
		}
	],
	"buffers":[
		{
			"byteLength":483120,
			"uri":"A0509_4_1.bin"
		}
	]
}
