{
	"asset":{
		"generator":"Khronos glTF Blender I/O v3.6.28",
		"version":"2.0"
	},
	"scene":0,
	"scenes":[
		{
			"name":"Scene",
			"nodes":[
				0
			]
		}
	],
	"nodes":[
		{
			"mesh":0,
			"name":"A0509_3_0"
		}
	],
	"materials":[
		{
			"doubleSided":true,
			"name":"Material_008",
			"pbrMetallicRoughness":{
				"baseColorFactor":[
					0.6499999761581421,
					0.6499999761581421,
					0.6499999761581421,
					1
				],
				"metallicFactor":0,
				"roughnessFactor":0.5
			}
		}
	],
	"meshes":[
		{
			"name":"A0509 3 0.001",
			"primitives":[
				{
					"attributes":{
						"POSITION":0,
						"NORMAL":1
					},
					"indices":2,
					"material":0
				}
			]
		}
	],
	"accessors":[
		{
			"bufferView":0,
			"componentType":5126,
			"count":2574,
			"max":[
				58.73270034790039,
				80.5,
				58.732967376708984
			],
			"min":[
				-58.73270034790039,
				64.00090026855469,
				-58.733001708984375
			],
			"type":"VEC3"
		},
		{
			"bufferView":1,
			"componentType":5126,
			"count":2574,
			"type":"VEC3"
		},
		{
			"bufferView":2,
			"componentType":5123,
			"count":2832,
			"type":"SCALAR"
		}
	],
	"bufferViews":[
		{
			"buffer":0,
			"byteLength":30888,
			"byteOffset":0,
			"target":34962
		},
		{
			"buffer":0,
			"byteLength":30888,
			"byteOffset":30888,
			"target":34962
		},
		{
			"buffer":0,
			"byteLength":5664,
			"byteOffset":61776,
			"target":34963
		}
	],
	"buffers":[
		{
			"byteLength":67440,
			"uri":"A0509_3_0.bin"
		}
	]
}
