{
	"asset":{
		"generator":"Khronos glTF Blender I/O v3.6.28",
		"version":"2.0"
	},
	"scene":0,
	"scenes":[
		{
			"name":"Scene",
			"nodes":[
				0
			]
		}
	],
	"nodes":[
		{
			"mesh":0,
			"name":"A0509_2_2"
		}
	],
	"materials":[
		{
			"doubleSided":true,
			"name":"Material_007",
			"pbrMetallicRoughness":{
				"metallicFactor":0,
				"roughnessFactor":0.5
			}
		}
	],
	"meshes":[
		{
			"name":"A0509 2 2.001",
			"primitives":[
				{
					"attributes":{
						"POSITION":0,
						"NORMAL":1
					},
					"indices":2,
					"material":0
				}
			]
		}
	],
	"accessors":[
		{
			"bufferView":0,
			"componentType":5126,
			"count":22697,
			"max":[
				469.74603271484375,
				250.88601684570312,
				61.07169723510742
			],
			"min":[
				345,
				80.5,
				-61.07169723510742
			],
			"type":"VEC3"
		},
		{
			"bufferView":1,
			"componentType":5126,
			"count":22697,
			"type":"VEC3"
		},
		{
			"bufferView":2,
			"componentType":5123,
			"count":23238,
			"type":"SCALAR"
		}
	],
	"bufferViews":[
		{
			"buffer":0,
			"byteLength":272364,
			"byteOffset":0,
			"target":34962
		},
		{
			"buffer":0,
			"byteLength":272364,
			"byteOffset":272364,
			"target":34962
		},
		{
			"buffer":0,
			"byteLength":46476,
			"byteOffset":544728,
			"target":34963
		}
	],
	"buffers":[
		{
			"byteLength":591204,
			"uri":"A0509_2_2.bin"
		}
	]
}
