{
	"asset":{
		"generator":"Khronos glTF Blender I/O v3.6.28",
		"version":"2.0"
	},
	"scene":0,
	"scenes":[
		{
			"name":"Scene",
			"nodes":[
				0
			]
		}
	],
	"nodes":[
		{
			"mesh":0,
			"name":"A0509_2_0"
		}
	],
	"materials":[
		{
			"doubleSided":true,
			"name":"Material_005",
			"pbrMetallicRoughness":{
				"metallicFactor":0,
				"roughnessFactor":0.5
			}
		}
	],
	"meshes":[
		{
			"name":"A0509 2 0.001",
			"primitives":[
				{
					"attributes":{
						"POSITION":0,
						"NORMAL":1
					},
					"indices":2,
					"material":0
				}
			]
		}
	],
	"accessors":[
		{
			"bufferView":0,
			"componentType":5126,
			"count":24585,
			"max":[
				64,
				250.88601684570312,
				61.07169723510742
			],
			"min":[
				-60.745697021484375,
				80.5,
				-61.07169723510742
			],
			"type":"VEC3"
		},
		{
			"bufferView":1,
			"componentType":5126,
			"count":24585,
			"type":"VEC3"
		},
		{
			"bufferView":2,
			"componentType":5123,
			"count":25113,
			"type":"SCALAR"
		}
	],
	"bufferViews":[
		{
			"buffer":0,
			"byteLength":295020,
			"byteOffset":0,
			"target":34962
		},
		{
			"buffer":0,
			"byteLength":295020,
			"byteOffset":295020,
			"target":34962
		},
		{
			"buffer":0,
			"byteLength":50226,
			"byteOffset":590040,
			"target":34963
		}
	],
	"buffers":[
		{
			"byteLength":640268,
			"uri":"A0509_2_0.bin"
		}
	]
}
