{
	"asset":{
		"generator":"Khronos glTF Blender I/O v3.6.28",
		"version":"2.0"
	},
	"scene":0,
	"scenes":[
		{
			"name":"Scene",
			"nodes":[
				0
			]
		}
	],
	"nodes":[
		{
			"mesh":0,
			"name":"A0509_5_1"
		}
	],
	"materials":[
		{
			"doubleSided":true,
			"name":"Material_013",
			"pbrMetallicRoughness":{
				"metallicFactor":0,
				"roughnessFactor":0.5
			}
		}
	],
	"meshes":[
		{
			"name":"A0509 5 1.001",
			"primitives":[
				{
					"attributes":{
						"POSITION":0,
						"NORMAL":1
					},
					"indices":2,
					"material":0
				}
			]
		}
	],
	"accessors":[
		{
			"bufferView":0,
			"componentType":5126,
			"count":26667,
			"max":[
				50.35369873046875,
				51,
				58
			],
			"min":[
				-50.35369873046875,
				-50.20669937133789,
				-97.85198974609375
			],
			"type":"VEC3"
		},
		{
			"bufferView":1,
			"componentType":5126,
			"count":26667,
			"type":"VEC3"
		},
		{
			"bufferView":2,
			"componentType":5123,
			"count":27186,
			"type":"SCALAR"
		}
	],
	"bufferViews":[
		{
			"buffer":0,
			"byteLength":320004,
			"byteOffset":0,
			"target":34962
		},
		{
			"buffer":0,
			"byteLength":320004,
			"byteOffset":320004,
			"target":34962
		},
		{
			"buffer":0,
			"byteLength":54372,
			"byteOffset":640008,
			"target":34963
		}
	],
	"buffers":[
		{
			"byteLength":694380,
			"uri":"A0509_5_1.bin"
		}
	]
}
