{
	"asset":{
		"generator":"Khronos glTF Blender I/O v3.6.28",
		"version":"2.0"
	},
	"scene":0,
	"scenes":[
		{
			"name":"Scene",
			"nodes":[
				0
			]
		}
	],
	"nodes":[
		{
			"mesh":0,
			"name":"A0509_1_0"
		}
	],
	"materials":[
		{
			"doubleSided":true,
			"name":"Material_002",
			"pbrMetallicRoughness":{
				"baseColorFactor":[
					0.6499999761581421,
					0.6499999761581421,
					0.6499999761581421,
					1
				],
				"metallicFactor":0,
				"roughnessFactor":0.5
			}
		}
	],
	"meshes":[
		{
			"name":"A0509 1 0.001",
			"primitives":[
				{
					"attributes":{
						"POSITION":0,
						"NORMAL":1
					},
					"indices":2,
					"material":0
				}
			]
		}
	],
	"accessors":[
		{
			"bufferView":0,
			"componentType":5126,
			"count":3314,
			"max":[
				58.715599060058594,
				58.70798873901367,
				-64.00910186767578
			],
			"min":[
				-58.715599060058594,
				-58.70859909057617,
				-80.5
			],
			"type":"VEC3"
		},
		{
			"bufferView":1,
			"componentType":5126,
			"count":3314,
			"type":"VEC3"
		},
		{
			"bufferView":2,
			"componentType":5123,
			"count":3576,
			"type":"SCALAR"
		}
	],
	"bufferViews":[
		{
			"buffer":0,
			"byteLength":39768,
			"byteOffset":0,
			"target":34962
		},
		{
			"buffer":0,
			"byteLength":39768,
			"byteOffset":39768,
			"target":34962
		},
		{
			"buffer":0,
			"byteLength":7152,
			"byteOffset":79536,
			"target":34963
		}
	],
	"buffers":[
		{
			"byteLength":86688,
			"uri":"A0509_1_0.bin"
		}
	]
}
